<?xml version="1.0" encoding="UTF-8" standalone="no"?>
<!DOCTYPE svg PUBLIC "-//W3C//DTD SVG 1.1//EN"
 "http://www.w3.org/Graphics/SVG/1.1/DTD/svg11.dtd">
<!-- Generated by graphviz version 2.42.4 (0)
 -->
<!-- Title: G Pages: 1 -->
<svg width="891pt" height="715pt"
 viewBox="0.00 0.00 891.20 715.20" xmlns="http://www.w3.org/2000/svg" xmlns:xlink="http://www.w3.org/1999/xlink">
<g id="graph0" class="graph" transform="scale(1 1) rotate(0) translate(39.6 675.6)">
<title>G</title>
<polygon fill="white" stroke="transparent" points="-39.6,39.6 -39.6,-675.6 851.6,-675.6 851.6,39.6 -39.6,39.6"/>
<text text-anchor="middle" x="406" y="-612.8" font-family="Lato" font-size="24.00" fill="#1f2933">Clean Architecture — dependency direction and implementation boundaries</text>
<g id="clust1" class="cluster">
<title>cluster_delivery</title>
<path fill="white" stroke="#e3e8ed" stroke-width="1.4" stroke-dasharray="5,2" d="M29.5,-473C29.5,-473 345.5,-473 345.5,-473 351.5,-473 357.5,-479 357.5,-485 357.5,-485 357.5,-582 357.5,-582 357.5,-588 351.5,-594 345.5,-594 345.5,-594 29.5,-594 29.5,-594 23.5,-594 17.5,-588 17.5,-582 17.5,-582 17.5,-485 17.5,-485 17.5,-479 23.5,-473 29.5,-473"/>
<text text-anchor="middle" x="187.5" y="-578" font-family="Lato" font-size="15.00" fill="#1f2933">Delivery and application coordination</text>
</g>
<g id="clust2" class="cluster">
<title>cluster_implementation</title>
<path fill="white" stroke="#e3e8ed" stroke-width="1.4" stroke-dasharray="5,2" d="M436.5,-8C436.5,-8 782.5,-8 782.5,-8 788.5,-8 794.5,-14 794.5,-20 794.5,-20 794.5,-268 794.5,-268 794.5,-274 788.5,-280 782.5,-280 782.5,-280 436.5,-280 436.5,-280 430.5,-280 424.5,-274 424.5,-268 424.5,-268 424.5,-20 424.5,-20 424.5,-14 430.5,-8 436.5,-8"/>
<text text-anchor="middle" x="609.5" y="-264" font-family="Lato" font-size="15.00" fill="#1f2933">Technical implementation</text>
</g>
<!-- UI -->
<g id="node1" class="node">
<title>UI</title>
<path fill="#b52a2a" stroke="#b52a2a" stroke-width="1.6" d="M337.5,-561C337.5,-561 37.5,-561 37.5,-561 31.5,-561 25.5,-555 25.5,-549 25.5,-549 25.5,-493 25.5,-493 25.5,-487 31.5,-481 37.5,-481 37.5,-481 337.5,-481 337.5,-481 343.5,-481 349.5,-487 349.5,-493 349.5,-493 349.5,-549 349.5,-549 349.5,-555 343.5,-561 337.5,-561"/>
<text text-anchor="middle" x="187.5" y="-535.2" font-family="Lato" font-size="16.00" fill="white">PRESENTATION</text>
<text text-anchor="middle" x="187.5" y="-517.2" font-family="Lato" font-size="16.00" fill="white">Screens • Widgets • Routes</text>
<text text-anchor="middle" x="187.5" y="-499.2" font-family="Lato" font-size="16.00" fill="white">BLoC / Cubit • Events • States</text>
</g>
<!-- APP -->
<g id="node2" class="node">
<title>APP</title>
<path fill="#315f86" stroke="#315f86" stroke-width="1.6" d="M337.5,-410C337.5,-410 37.5,-410 37.5,-410 31.5,-410 25.5,-404 25.5,-398 25.5,-398 25.5,-342 25.5,-342 25.5,-336 31.5,-330 37.5,-330 37.5,-330 337.5,-330 337.5,-330 343.5,-330 349.5,-336 349.5,-342 349.5,-342 349.5,-398 349.5,-398 349.5,-404 343.5,-410 337.5,-410"/>
<text text-anchor="middle" x="187.5" y="-384.2" font-family="Lato" font-size="16.00" fill="white">APPLICATION / USE CASES</text>
<text text-anchor="middle" x="187.5" y="-366.2" font-family="Lato" font-size="16.00" fill="white">Business actions • Validation</text>
<text text-anchor="middle" x="187.5" y="-348.2" font-family="Lato" font-size="16.00" fill="white">Orchestration</text>
</g>
<!-- UI&#45;&gt;APP -->
<g id="edge1" class="edge">
<title>UI&#45;&gt;APP</title>
<path fill="none" stroke="#657786" stroke-width="1.8" d="M187.5,-480.85C187.5,-461.68 187.5,-438.44 187.5,-418.28"/>
<polygon fill="#657786" stroke="#657786" stroke-width="1.8" points="190.3,-418.14 187.5,-410.14 184.7,-418.14 190.3,-418.14"/>
<text text-anchor="middle" x="276.5" y="-442.4" font-family="Lato" font-size="12.00" fill="#455a64">dispatches intent / observes state</text>
</g>
<!-- DOMAIN -->
<g id="node3" class="node">
<title>DOMAIN</title>
<path fill="#3f724c" stroke="#3f724c" stroke-width="1.6" d="M363,-247C363,-247 34,-247 34,-247 28,-247 22,-241 22,-235 22,-235 22,-179 22,-179 22,-173 28,-167 34,-167 34,-167 363,-167 363,-167 369,-167 375,-173 375,-179 375,-179 375,-235 375,-235 375,-241 369,-247 363,-247"/>
<text text-anchor="middle" x="198.5" y="-221.2" font-family="Lato" font-size="16.00" fill="white">DOMAIN</text>
<text text-anchor="middle" x="198.5" y="-203.2" font-family="Lato" font-size="16.00" fill="white">Entities • Value objects • Failures</text>
<text text-anchor="middle" x="198.5" y="-185.2" font-family="Lato" font-size="16.00" fill="white">Repository contracts • Pure policies</text>
</g>
<!-- APP&#45;&gt;DOMAIN -->
<g id="edge2" class="edge">
<title>APP&#45;&gt;DOMAIN</title>
<path fill="none" stroke="#657786" stroke-width="1.8" d="M183.45,-329.84C182.64,-320.41 181.91,-310.35 181.5,-301 181.25,-295.23 180.9,-293.75 181.5,-288 182.62,-277.31 184.57,-265.95 186.75,-255.24"/>
<polygon fill="#657786" stroke="#657786" stroke-width="1.8" points="189.54,-255.62 188.46,-247.21 184.06,-254.45 189.54,-255.62"/>
<text text-anchor="middle" x="255.5" y="-291.4" font-family="Lato" font-size="12.00" fill="#455a64">depends on stable contracts</text>
</g>
<!-- NOTE -->
<g id="node7" class="node">
<title>NOTE</title>
<polygon fill="#fff8e6" stroke="#e6b84a" stroke-width="1.6" points="351,-91.5 40,-91.5 40,-20.5 357,-20.5 357,-85.5 351,-91.5"/>
<polyline fill="none" stroke="#e6b84a" stroke-width="1.6" points="351,-91.5 351,-85.5 "/>
<polyline fill="none" stroke="#e6b84a" stroke-width="1.6" points="357,-85.5 351,-85.5 "/>
<text text-anchor="middle" x="198.5" y="-67.3" font-family="Lato" font-size="14.00" fill="#1f2933">Dependency rule</text>
<text text-anchor="middle" x="198.5" y="-52.3" font-family="Lato" font-size="14.00" fill="#1f2933">Inner layers never import Flutter, HTTP, cache,</text>
<text text-anchor="middle" x="198.5" y="-37.3" font-family="Lato" font-size="14.00" fill="#1f2933">or vendor&#45;specific SDKs.</text>
</g>
<!-- DOMAIN&#45;&gt;NOTE -->
<g id="edge6" class="edge">
<title>DOMAIN&#45;&gt;NOTE</title>
<path fill="none" stroke="#b58a2b" stroke-width="1.8" stroke-dasharray="5,2" d="M198.5,-166.85C198.5,-143.49 198.5,-114.08 198.5,-91.57"/>
</g>
<!-- DATA -->
<g id="node4" class="node">
<title>DATA</title>
<path fill="#aa6d1f" stroke="#aa6d1f" stroke-width="1.6" d="M756,-410C756,-410 427,-410 427,-410 421,-410 415,-404 415,-398 415,-398 415,-342 415,-342 415,-336 421,-330 427,-330 427,-330 756,-330 756,-330 762,-330 768,-336 768,-342 768,-342 768,-398 768,-398 768,-404 762,-410 756,-410"/>
<text text-anchor="middle" x="591.5" y="-384.2" font-family="Lato" font-size="16.00" fill="white">DATA</text>
<text text-anchor="middle" x="591.5" y="-366.2" font-family="Lato" font-size="16.00" fill="white">Repository implementations • DTOs</text>
<text text-anchor="middle" x="591.5" y="-348.2" font-family="Lato" font-size="16.00" fill="white">Mappers • Remote / local data sources</text>
</g>
<!-- DATA&#45;&gt;DOMAIN -->
<g id="edge3" class="edge">
<title>DATA&#45;&gt;DOMAIN</title>
<path fill="none" stroke="#657786" stroke-width="1.8" d="M490.09,-329.94C466.23,-320.59 440.93,-310.55 417.5,-301 377.69,-284.77 334.06,-266.37 296.29,-250.25"/>
<polygon fill="#657786" stroke="#657786" stroke-width="1.8" points="297.28,-247.62 288.82,-247.05 295.08,-252.77 297.28,-247.62"/>
<text text-anchor="middle" x="502.5" y="-291.4" font-family="Lato" font-size="12.00" fill="#455a64">implements repository contracts</text>
</g>
<!-- INFRA -->
<g id="node5" class="node">
<title>INFRA</title>
<path fill="#6d5689" stroke="#6d5689" stroke-width="1.6" d="M774,-247C774,-247 445,-247 445,-247 439,-247 433,-241 433,-235 433,-235 433,-179 433,-179 433,-173 439,-167 445,-167 445,-167 774,-167 774,-167 780,-167 786,-173 786,-179 786,-179 786,-235 786,-235 786,-241 780,-247 774,-247"/>
<text text-anchor="middle" x="609.5" y="-221.2" font-family="Lato" font-size="16.00" fill="white">CORE INFRASTRUCTURE</text>
<text text-anchor="middle" x="609.5" y="-203.2" font-family="Lato" font-size="16.00" fill="white">DI • HTTP • Interceptors • Config</text>
<text text-anchor="middle" x="609.5" y="-185.2" font-family="Lato" font-size="16.00" fill="white">Logging • Analytics • Secure storage</text>
</g>
<!-- DATA&#45;&gt;INFRA -->
<g id="edge4" class="edge">
<title>DATA&#45;&gt;INFRA</title>
<path fill="none" stroke="#657786" stroke-width="1.8" d="M595.9,-329.61C598.41,-307.21 601.56,-279.01 604.2,-255.4"/>
<polygon fill="#657786" stroke="#657786" stroke-width="1.8" points="607,-255.52 605.11,-247.26 601.44,-254.9 607,-255.52"/>
<text text-anchor="middle" x="662.5" y="-291.4" font-family="Lato" font-size="12.00" fill="#455a64">uses technical adapters</text>
</g>
<!-- EXT -->
<g id="node6" class="node">
<title>EXT</title>
<path fill="#30343a" stroke="#30343a" stroke-width="1.6" d="M774,-96C774,-96 445,-96 445,-96 439,-96 433,-90 433,-84 433,-84 433,-28 433,-28 433,-22 439,-16 445,-16 445,-16 774,-16 774,-16 780,-16 786,-22 786,-28 786,-28 786,-84 786,-84 786,-90 780,-96 774,-96"/>
<text text-anchor="middle" x="609.5" y="-70.2" font-family="Lato" font-size="16.00" fill="white">EXTERNAL SYSTEMS</text>
<text text-anchor="middle" x="609.5" y="-52.2" font-family="Lato" font-size="16.00" fill="white">API gateway / BFF • Authentication</text>
<text text-anchor="middle" x="609.5" y="-34.2" font-family="Lato" font-size="16.00" fill="white">Analytics • Device APIs • Storage</text>
</g>
<!-- INFRA&#45;&gt;EXT -->
<g id="edge5" class="edge">
<title>INFRA&#45;&gt;EXT</title>
<path fill="none" stroke="#657786" stroke-width="1.8" d="M609.5,-166.85C609.5,-147.68 609.5,-124.44 609.5,-104.28"/>
<polygon fill="#657786" stroke="#657786" stroke-width="1.8" points="612.3,-104.14 609.5,-96.14 606.7,-104.14 612.3,-104.14"/>
<text text-anchor="middle" x="649.5" y="-128.4" font-family="Lato" font-size="12.00" fill="#455a64">integrates with</text>
</g>
</g>
</svg>
