<?xml version="1.0" encoding="utf-8" ?>
<svg baseProfile="full" height="1250" version="1.1" viewBox="0 0 2400 1250" width="2400" xmlns="http://www.w3.org/2000/svg" xmlns:ev="http://www.w3.org/2001/xml-events" xmlns:xlink="http://www.w3.org/1999/xlink"><defs /><rect fill="white" height="1250" width="2400" x="0" y="0" /><text fill="#1F2933" font-family="Lato" font-size="44" font-weight="700" text-anchor="middle" x="1200.0" y="72">Repository cache decision — source selection and failure mapping</text><rect fill="#F7F3FA" height="280" rx="24" stroke="#E4E9EE" stroke-width="2" width="1660" x="675" y="150" /><text fill="#6D5689" font-family="Lato" font-size="22" font-weight="700" letter-spacing="1.5" x="710" y="192">CACHE PATH</text><rect fill="#F8FBF8" height="330" rx="24" stroke="#E4E9EE" stroke-width="2" width="1660" x="675" y="485" /><text fill="#3F724C" font-family="Lato" font-size="22" font-weight="700" letter-spacing="1.5" x="710" y="527">REMOTE SUCCESS PATH</text><rect fill="#FFF7F7" height="285" rx="24" stroke="#E4E9EE" stroke-width="2" width="1660" x="675" y="850" /><text fill="#B52A2A" font-family="Lato" font-size="22" font-weight="700" letter-spacing="1.5" x="710" y="892">FAILURE PATH</text><rect fill="#315F86" height="126" rx="20" stroke="#315F86" stroke-width="2.5" width="280" x="25.0" y="572.0" /><text fill="white" font-family="Lato" font-size="30" font-weight="600" text-anchor="middle" x="165" y="628.4000000000001">Repository method</text><text fill="white" font-family="Lato" font-size="30" font-weight="600" text-anchor="middle" x="165" y="662.0000000000001">called</text><polygon fill="#EEF4F8" points="500,540.0 665.0,635 500,730.0 335.0,635" stroke="#315F86" stroke-width="3" /><text fill="#1F2933" font-family="Lato" font-size="30" font-weight="500" text-anchor="middle" x="500" y="629.0">Is cache</text><text fill="#1F2933" font-family="Lato" font-size="30" font-weight="500" text-anchor="middle" x="500" y="661.4">allowed?</text><polygon fill="#F4F0F8" points="875,195.0 1065.0,290 875,385.0 685.0,290" stroke="#6D5689" stroke-width="3" /><text fill="#1F2933" font-family="Lato" font-size="29" font-weight="500" text-anchor="middle" x="875" y="284.2">Is cache available</text><text fill="#1F2933" font-family="Lato" font-size="29" font-weight="500" text-anchor="middle" x="875" y="315.52">and valid?</text><rect fill="#6D5689" height="126" rx="20" stroke="#6D5689" stroke-width="2.5" width="310" x="1125.0" y="227.0" /><text fill="white" font-family="Lato" font-size="30" font-weight="600" text-anchor="middle" x="1280" y="283.4">Map cached record</text><text fill="white" font-family="Lato" font-size="30" font-weight="600" text-anchor="middle" x="1280" y="317.0">to domain</text><rect fill="#AA6D1F" height="126" rx="20" stroke="#AA6D1F" stroke-width="2.5" width="300" x="730.0" y="587.0" /><text fill="white" font-family="Lato" font-size="30" font-weight="600" text-anchor="middle" x="880" y="643.4000000000001">Call remote</text><text fill="white" font-family="Lato" font-size="30" font-weight="600" text-anchor="middle" x="880" y="677.0000000000001">data source</text><polygon fill="#FFF4E6" points="1260,555.0 1425.0,650 1260,745.0 1095.0,650" stroke="#AA6D1F" stroke-width="3" /><text fill="#1F2933" font-family="Lato" font-size="30" font-weight="500" text-anchor="middle" x="1260" y="644.0">Remote</text><text fill="#1F2933" font-family="Lato" font-size="30" font-weight="500" text-anchor="middle" x="1260" y="676.4">success?</text><rect fill="#3F724C" height="126" rx="20" stroke="#3F724C" stroke-width="2.5" width="260" x="1460.0" y="587.0" /><text fill="white" font-family="Lato" font-size="30" font-weight="600" text-anchor="middle" x="1590" y="643.4000000000001">Map DTO</text><text fill="white" font-family="Lato" font-size="30" font-weight="600" text-anchor="middle" x="1590" y="677.0000000000001">to domain</text><polygon fill="#F4F0F8" points="1900,555.0 2070.0,650 1900,745.0 1730.0,650" stroke="#6D5689" stroke-width="3" /><text fill="#1F2933" font-family="Lato" font-size="29" font-weight="500" text-anchor="middle" x="1900" y="644.2">Should cache</text><text fill="#1F2933" font-family="Lato" font-size="29" font-weight="500" text-anchor="middle" x="1900" y="675.5200000000001">be updated?</text><rect fill="#6D5689" height="126" rx="20" stroke="#6D5689" stroke-width="2.5" width="290" x="2065.0" y="587.0" /><text fill="white" font-family="Lato" font-size="29" font-weight="600" text-anchor="middle" x="2210" y="643.62">Write cache with</text><text fill="white" font-family="Lato" font-size="29" font-weight="600" text-anchor="middle" x="2210" y="676.1">timestamp / TTL</text><rect fill="#3F724C" height="126" rx="20" stroke="#3F724C" stroke-width="2.5" width="290" x="2065.0" y="227.0" /><text fill="white" font-family="Lato" font-size="30" font-weight="600" text-anchor="middle" x="2210" y="283.4">Return domain</text><text fill="white" font-family="Lato" font-size="30" font-weight="600" text-anchor="middle" x="2210" y="317.0">result</text><rect fill="#B52A2A" height="126" rx="20" stroke="#B52A2A" stroke-width="2.5" width="340" x="1420.0" y="907.0" /><text fill="white" font-family="Lato" font-size="29" font-weight="600" text-anchor="middle" x="1590" y="963.62">Map technical error</text><text fill="white" font-family="Lato" font-size="29" font-weight="600" text-anchor="middle" x="1590" y="996.1">to typed Failure</text><rect fill="#B52A2A" height="126" rx="20" stroke="#B52A2A" stroke-width="2.5" width="250" x="1900.0" y="907.0" /><text fill="white" font-family="Lato" font-size="30" font-weight="600" text-anchor="middle" x="2025" y="980.2">Return Failure</text><polyline fill="none" points="305,635 335,635" stroke="#657786" stroke-linejoin="round" stroke-width="4" /><polygon fill="#657786" points="335,635 317,625 317,645" /><polyline fill="none" points="665,635 730,635" stroke="#657786" stroke-linejoin="round" stroke-width="4" /><polygon fill="#657786" points="730,635 712,625 712,645" /><rect fill="white" height="38" rx="9" stroke="#E5E9ED" stroke-width="1" width="58" x="669.0" y="586" /><text fill="#52606D" font-family="Lato" font-size="23" font-weight="600" text-anchor="middle" x="698" y="613">No</text><polyline fill="none" points="500,540 500,290 685,290" stroke="#657786" stroke-linejoin="round" stroke-width="4" /><polygon fill="#657786" points="685,290 667,280 667,300" /><rect fill="white" height="38" rx="9" stroke="#E5E9ED" stroke-width="1" width="73" x="498.5" y="241" /><text fill="#52606D" font-family="Lato" font-size="23" font-weight="600" text-anchor="middle" x="535" y="268">Yes</text><polyline fill="none" points="875,385 875,587" stroke="#657786" stroke-linejoin="round" stroke-width="4" /><polygon fill="#657786" points="875,587 865,569 885,569" /><rect fill="white" height="38" rx="9" stroke="#E5E9ED" stroke-width="1" width="58" x="886.0" y="466" /><text fill="#52606D" font-family="Lato" font-size="23" font-weight="600" text-anchor="middle" x="915" y="493">No</text><polyline fill="none" points="1065,290 1125,290" stroke="#657786" stroke-linejoin="round" stroke-width="4" /><polygon fill="#657786" points="1125,290 1107,280 1107,300" /><rect fill="white" height="38" rx="9" stroke="#E5E9ED" stroke-width="1" width="73" x="1058.5" y="241" /><text fill="#52606D" font-family="Lato" font-size="23" font-weight="600" text-anchor="middle" x="1095" y="268">Yes</text><polyline fill="none" points="1435,290 2065,290" stroke="#657786" stroke-linejoin="round" stroke-width="4" /><polygon fill="#657786" points="2065,290 2047,280 2047,300" /><polyline fill="none" points="1030,650 1095,650" stroke="#657786" stroke-linejoin="round" stroke-width="4" /><polygon fill="#657786" points="1095,650 1077,640 1077,660" /><polyline fill="none" points="1425,650 1460,650" stroke="#657786" stroke-linejoin="round" stroke-width="4" /><polygon fill="#657786" points="1460,650 1442,640 1442,660" /><rect fill="white" height="38" rx="9" stroke="#E5E9ED" stroke-width="1" width="73" x="1406.5" y="601" /><text fill="#52606D" font-family="Lato" font-size="23" font-weight="600" text-anchor="middle" x="1443" y="628">Yes</text><polyline fill="none" points="1260,745 1260,970 1420,970" stroke="#657786" stroke-linejoin="round" stroke-width="4" /><polygon fill="#657786" points="1420,970 1402,960 1402,980" /><rect fill="white" height="38" rx="9" stroke="#E5E9ED" stroke-width="1" width="58" x="1271.0" y="828" /><text fill="#52606D" font-family="Lato" font-size="23" font-weight="600" text-anchor="middle" x="1300" y="855">No</text><polyline fill="none" points="1720,650 1730,650" stroke="#657786" stroke-linejoin="round" stroke-width="4" /><polygon fill="#657786" points="1730,650 1712,640 1712,660" /><polyline fill="none" points="2070,650 2065,650" stroke="#657786" stroke-linejoin="round" stroke-width="4" /><polygon fill="#657786" points="2065,650 2083,640 2083,660" /><rect fill="white" height="38" rx="9" stroke="#E5E9ED" stroke-width="1" width="73" x="2033.5" y="601" /><text fill="#52606D" font-family="Lato" font-size="23" font-weight="600" text-anchor="middle" x="2070" y="628">Yes</text><polyline fill="none" points="2210,587 2210,353" stroke="#657786" stroke-linejoin="round" stroke-width="4" /><polygon fill="#657786" points="2210,353 2200,371 2220,371" /><polyline fill="none" points="1900,555 1900,455 2210,455 2210,353" stroke="#657786" stroke-linejoin="round" stroke-width="4" /><polygon fill="#657786" points="2210,353 2200,371 2220,371" /><rect fill="white" height="38" rx="9" stroke="#E5E9ED" stroke-width="1" width="58" x="1911.0" y="406" /><text fill="#52606D" font-family="Lato" font-size="23" font-weight="600" text-anchor="middle" x="1940" y="433">No</text><polyline fill="none" points="1760,970 1900,970" stroke="#657786" stroke-linejoin="round" stroke-width="4" /><polygon fill="#657786" points="1900,970 1882,960 1882,980" /></svg>